<?xml version="1.0" standalone="no"?>
<!DOCTYPE svg PUBLIC "-//W3C//DTD SVG 20010904//EN"
 "http://www.w3.org/TR/2001/REC-SVG-20010904/DTD/svg10.dtd">
<svg version="1.0" xmlns="http://www.w3.org/2000/svg"
 width="383.000000pt" height="445.000000pt" viewBox="0 0 383.000000 445.000000"
 preserveAspectRatio="xMidYMid meet">

<g transform="translate(0.000000,445.000000) scale(0.100000,-0.100000)"
fill="#000000" stroke="none">
<path d="M2973 4270 c-197 -58 -318 -180 -395 -400 -37 -106 -50 -246 -24
-256 9 -3 28 2 42 12 62 45 76 51 99 46 20 -3 25 1 30 24 20 94 74 223 103
247 24 19 138 12 212 -13 36 -12 101 -44 145 -71 206 -124 276 -267 276 -563
0 -82 -3 -151 -5 -154 -3 -2 -17 22 -31 54 -14 32 -32 65 -40 74 -7 8 -26 49
-40 90 -52 146 -114 235 -204 294 -65 44 -108 46 -177 10 -64 -34 -184 -131
-184 -149 0 -26 21 -27 53 -1 63 52 178 125 207 131 38 8 112 -36 166 -99 41
-48 109 -179 95 -184 -5 -2 -27 9 -49 23 -47 31 -121 55 -169 55 -54 0 -73
-28 -73 -109 0 -84 6 -101 34 -101 28 0 39 10 27 24 -10 12 -16 62 -13 109 2
24 6 27 40 27 58 0 121 -26 183 -74 39 -30 58 -53 62 -73 2 -15 17 -73 32
-128 19 -69 28 -126 29 -185 1 -87 15 -130 41 -130 11 0 15 20 17 93 3 87 4
92 24 89 28 -4 34 14 23 73 -5 26 -8 120 -8 209 1 217 -20 314 -98 447 -85
146 -301 275 -481 286 -81 6 -84 5 -112 -22 -34 -33 -81 -125 -105 -208 -16
-54 -20 -59 -68 -82 -28 -14 -53 -25 -55 -25 -8 0 6 106 20 155 24 81 83 196
129 252 53 66 143 125 234 153 135 42 231 26 294 -49 48 -57 100 -151 141
-256 18 -44 40 -98 50 -120 33 -73 48 -144 95 -440 49 -311 77 -413 108 -402
18 6 13 64 -16 157 -14 47 -35 148 -46 225 -37 239 -42 268 -63 355 -31 125
-139 379 -201 470 -47 69 -81 97 -138 114 -68 20 -138 19 -216 -4z"/>
<path d="M1200 3736 c-72 -25 -305 -165 -395 -236 -64 -51 -175 -168 -224
-236 -16 -23 -68 -82 -116 -130 -81 -85 -175 -208 -175 -231 0 -6 -7 -24 -15
-40 -29 -57 -54 -171 -61 -278 -3 -60 -12 -144 -20 -185 -22 -115 -19 -156 11
-176 25 -16 55 -13 55 5 0 5 -10 11 -22 13 -31 4 -33 30 -14 168 8 63 20 160
26 215 10 102 40 214 78 295 12 25 55 81 95 125 40 44 113 127 161 185 152
181 223 249 321 307 28 16 93 55 145 86 172 103 250 117 348 62 50 -28 62 -31
62 -12 0 18 -63 55 -112 67 -57 13 -106 12 -148 -4z"/>
<path d="M1835 3726 c-90 -20 -282 -85 -347 -117 -32 -16 -69 -29 -83 -29 -45
0 -111 -88 -135 -180 -7 -25 -20 -71 -31 -102 -10 -32 -19 -70 -19 -86 0 -36
-8 -44 -31 -29 -43 27 -103 -83 -144 -268 -16 -75 -19 -363 -4 -505 6 -58 13
-170 15 -250 5 -145 11 -173 33 -146 17 21 19 135 5 266 -21 185 -28 423 -15
556 17 184 64 314 114 314 19 0 19 -6 12 -132 -6 -125 -5 -138 20 -223 46
-160 132 -303 261 -436 31 -33 61 -59 67 -59 6 0 18 -7 27 -15 9 -8 40 -23 69
-33 50 -17 55 -21 78 -77 14 -33 32 -64 40 -70 12 -9 10 -19 -12 -70 -24 -54
-26 -69 -23 -157 1 -54 0 -98 -4 -98 -22 0 -148 199 -148 233 0 7 -18 43 -40
81 -37 64 -50 106 -32 106 4 0 6 21 4 46 -4 39 -9 49 -36 65 -40 25 -82 25
-96 0 -19 -37 -12 -105 13 -129 13 -12 31 -22 40 -22 20 0 63 -67 137 -213 40
-80 69 -122 107 -158 l52 -50 -39 -64 c-22 -35 -53 -83 -70 -106 -16 -23 -30
-46 -30 -51 0 -4 -34 -65 -75 -134 -74 -122 -99 -172 -125 -244 -7 -19 -30
-69 -52 -110 -21 -42 -38 -83 -38 -93 0 -33 49 -34 292 -7 59 7 114 10 123 7
10 -4 15 -19 15 -42 0 -20 4 -66 10 -103 23 -161 49 -362 53 -419 l5 -62 -65
-7 c-35 -3 -80 -4 -100 -1 -19 3 -85 2 -147 -3 -61 -5 -239 -12 -396 -15 -157
-2 -377 -11 -490 -18 -113 -7 -294 -12 -402 -10 l-198 3 0 -24 c0 -23 4 -25
88 -32 104 -8 554 1 702 15 58 6 251 13 430 17 179 4 373 8 432 9 l106 3 6
-32 c3 -18 19 -47 35 -66 l29 -35 125 -4 c143 -4 140 -5 153 86 l6 50 106 7
c224 13 227 12 261 -66 10 -24 30 -54 45 -67 l27 -25 83 27 c46 15 90 35 99
45 9 9 17 40 19 67 l3 50 110 7 c61 4 187 16 280 27 212 26 448 49 583 57
l102 7 0 30 0 29 -92 -7 c-116 -8 -339 -30 -568 -55 -188 -20 -375 -36 -562
-46 l-117 -7 -5 24 c-3 13 -8 42 -11 64 -3 22 -17 77 -31 122 -13 45 -29 115
-34 155 -10 72 -39 232 -58 316 -5 23 -6 45 -2 47 5 3 44 12 87 20 94 18 170
33 202 40 22 6 23 9 17 53 -4 26 -11 81 -15 122 -10 79 -32 161 -75 274 l-26
69 57 51 c31 28 110 103 176 166 112 108 121 115 156 112 50 -4 101 19 143 66
36 40 56 102 44 140 -7 21 26 62 50 62 9 0 37 21 63 46 25 25 67 60 94 77 26
17 47 37 47 44 0 8 -18 22 -40 30 -47 19 -47 22 10 97 26 34 38 59 34 70 -12
32 -40 14 -89 -60 l-50 -75 -50 2 c-87 3 -92 -2 -51 -56 44 -57 44 -81 0 -126
-36 -37 -67 -49 -78 -30 -10 16 -60 19 -91 6 -43 -17 -85 -70 -85 -106 0 -17
-7 -44 -16 -61 -9 -18 -14 -42 -10 -58 5 -26 -10 -43 -155 -184 -88 -86 -166
-156 -173 -156 -16 0 -59 97 -46 105 14 8 39 145 42 223 2 60 7 80 26 105 13
18 30 48 38 68 13 32 24 40 87 64 97 38 151 76 192 138 19 28 35 56 35 60 0 5
14 26 30 47 41 52 106 195 139 306 l27 91 -18 64 c-26 86 -65 161 -113 218
-69 79 -67 74 -50 114 19 45 19 47 0 47 -9 0 -26 -11 -38 -25 l-22 -26 -67 57
c-38 31 -68 61 -68 65 0 26 160 -6 209 -40 42 -30 65 -26 48 9 -26 54 -183
100 -340 100 -27 0 -53 11 -95 39 -74 51 -233 135 -313 167 -108 42 -296 61
-394 40z m217 -42 c54 -7 126 -24 160 -38 102 -41 254 -123 292 -158 18 -17
18 -18 -13 -43 -17 -15 -31 -33 -31 -40 0 -21 22 -30 34 -13 16 21 51 38 79
38 34 0 104 -67 112 -106 6 -30 4 -32 -27 -37 -30 -4 -38 1 -86 49 -51 52 -72
65 -72 44 0 -20 28 -65 58 -94 l31 -29 -22 -28 c-11 -16 -27 -29 -34 -29 -23
0 -45 -67 -38 -114 8 -49 19 -68 73 -123 47 -48 82 -68 141 -82 60 -13 104 2
156 55 52 54 68 99 55 164 -13 65 -13 66 16 39 36 -34 69 -93 94 -171 l21 -66
-32 -104 c-40 -127 -76 -210 -121 -274 -19 -27 -48 -72 -63 -101 -27 -50 -76
-93 -120 -105 -11 -3 -43 -15 -72 -26 -30 -13 -55 -17 -58 -12 -10 16 -84 31
-120 24 -27 -5 -35 -12 -40 -34 -8 -37 -27 -52 -81 -66 -36 -9 -46 -8 -59 5
-15 15 -18 14 -35 -6 -22 -28 -83 -30 -233 -9 -92 13 -101 17 -133 50 -34 35
-36 36 -107 34 -72 -2 -156 21 -211 58 -60 41 -221 251 -260 339 -9 22 -21 48
-26 57 -10 17 -23 66 -40 143 -8 39 1 208 19 340 12 84 60 243 87 287 13 20
33 44 46 52 21 15 24 15 34 1 15 -21 32 -19 63 8 15 12 62 34 106 49 278 92
289 94 457 72z m718 -384 c0 -6 -7 -10 -15 -10 -8 0 -15 2 -15 4 0 2 -3 12 -7
21 -5 15 -3 16 15 6 12 -7 22 -16 22 -21z m41 -87 c48 -43 79 -100 79 -143 0
-34 -46 -109 -82 -135 -57 -39 -186 4 -240 80 -49 69 -51 165 -4 165 14 0 30
10 40 26 22 32 48 43 113 43 47 1 57 -3 94 -36z m434 -818 c11 -1 24 -3 29 -4
6 0 -3 -15 -20 -32 l-29 -30 -17 22 c-24 29 -24 64 0 54 9 -4 26 -8 37 -10z
m-1790 -105 c3 -5 -1 -10 -9 -10 -22 0 -20 -13 4 -28 26 -16 26 -38 0 -45 -22
-6 -50 16 -50 39 0 40 39 70 55 44z m1590 -74 c17 -12 15 -15 -26 -39 -52 -31
-100 -50 -107 -43 -2 3 1 19 8 36 21 51 86 75 125 46z m-1198 -48 c-3 -8 -6
-5 -6 6 -1 11 2 17 5 13 3 -3 4 -12 1 -19z m587 -11 c3 -13 15 -34 27 -48 19
-22 21 -32 16 -114 -4 -49 -12 -108 -20 -129 l-13 -39 -20 34 c-37 64 -122
277 -112 283 11 6 95 35 104 35 7 1 14 -9 18 -22z m-399 -12 c17 -3 73 -7 125
-11 54 -3 98 -11 102 -18 4 -6 15 -31 24 -56 9 -25 39 -92 65 -149 27 -56 49
-106 49 -110 0 -10 -97 -80 -149 -107 -101 -52 -265 -69 -337 -34 -49 24 -124
101 -124 128 0 16 60 141 80 167 4 6 27 45 50 89 29 55 38 82 31 89 -7 7 -18
-6 -36 -44 -14 -30 -43 -81 -63 -114 -21 -33 -44 -75 -51 -92 -21 -51 -31 -39
-31 35 1 92 32 157 75 157 29 0 33 5 51 73 4 12 36 12 139 -3z m1055 -12 c0
-35 -31 -87 -65 -109 -31 -20 -41 -14 -25 16 7 13 10 35 7 50 -5 23 -1 30 31
48 48 28 52 27 52 -5z m-112 -64 c2 -23 2 -23 -13 -5 -18 24 -20 39 -2 34 6
-3 13 -15 15 -29z m-501 -401 c88 -211 122 -333 135 -477 l3 -33 -70 -18 c-38
-10 -100 -23 -137 -28 l-68 -9 0 35 c0 29 -2 33 -15 22 -8 -7 -15 -23 -15 -36
0 -18 -7 -25 -27 -30 -58 -12 -220 -56 -278 -74 -81 -25 -261 -35 -269 -15 -8
22 -26 18 -26 -5 0 -21 2 -21 -175 -41 -101 -11 -184 -13 -193 -4 -2 1 11 32
29 66 18 35 45 99 60 141 15 43 57 126 94 185 37 59 74 123 82 142 14 32 102
171 136 214 14 17 18 15 67 -33 71 -70 105 -82 215 -79 l90 3 22 -94 c30 -126
29 -133 -7 -147 l-30 -11 0 -90 c0 -95 11 -122 49 -122 18 0 82 30 106 50 31
25 14 100 -36 170 -20 28 -42 138 -43 214 l-1 48 64 23 c35 13 77 36 95 52 43
41 78 63 96 60 8 -1 29 -37 47 -79z m-154 -693 c8 -38 18 -92 22 -120 6 -49
50 -270 85 -434 11 -47 17 -88 15 -92 -11 -16 -375 -25 -485 -11 -124 16 -126
17 -134 109 -7 79 -15 135 -35 253 -6 36 -14 85 -17 110 -3 25 -10 69 -15 99
-5 30 -7 57 -4 60 3 2 51 8 108 11 65 5 132 16 187 33 116 36 244 65 251 58 4
-3 14 -37 22 -76z m369 -707 c46 -38 21 -77 -67 -104 -63 -20 -76 -16 -103 29
-17 28 -17 29 13 52 18 15 46 25 75 28 25 2 50 4 56 5 5 1 17 -4 26 -10z
m-625 -63 c-2 -25 -7 -49 -10 -52 -8 -7 -192 -4 -212 4 -14 5 -45 52 -45 68 0
14 54 23 159 24 l114 1 -6 -45z"/>
<path d="M1558 3542 c-57 -21 -80 -42 -103 -91 l-17 -39 54 -55 c29 -31 63
-60 76 -64 l23 -9 -29 -37 c-26 -32 -29 -43 -24 -84 5 -54 43 -134 80 -175 35
-38 90 -37 211 5 79 27 100 38 125 70 26 33 31 48 31 92 0 45 -4 58 -28 83
l-29 30 48 61 c42 55 46 63 36 86 -15 33 -28 32 -35 -2 -8 -36 -63 -103 -85
-103 -9 0 -45 12 -79 27 -49 21 -65 35 -82 66 -12 21 -21 50 -21 63 0 25 -15
30 -39 15 -12 -8 -12 -16 4 -58 10 -26 22 -52 26 -57 5 -6 9 -13 9 -17 0 -7
-75 -49 -89 -49 -17 0 -121 112 -121 130 0 29 33 57 82 71 52 14 374 14 412
-1 15 -5 35 -23 44 -40 19 -34 25 -36 42 -15 18 22 2 53 -43 83 -40 27 -42 27
-236 29 -165 2 -203 0 -243 -15z m284 -264 c68 -36 108 -82 108 -122 0 -37
-27 -82 -59 -96 -49 -23 -176 -60 -203 -60 -34 0 -63 28 -89 83 -23 51 -24 77
-4 103 8 10 15 27 15 37 0 12 23 29 72 52 40 19 79 35 86 35 8 0 41 -14 74
-32z"/>
<path d="M1695 3193 c-12 -12 -15 -25 -10 -52 9 -47 21 -61 56 -61 52 0 58 56
11 113 -19 21 -36 22 -57 0z"/>
<path d="M2215 3298 c-2 -7 -8 -62 -14 -123 -26 -279 -26 -295 8 -295 28 0
141 129 141 161 0 8 12 37 27 66 28 54 25 81 -9 68 -16 -6 -20 -14 -53 -107
-10 -26 -33 -65 -52 -85 l-34 -38 5 183 c4 121 2 182 -4 182 -6 0 -12 -6 -15
-12z"/>
<path d="M2053 2603 c-43 -17 50 -143 140 -189 35 -19 192 -35 222 -24 29 11
112 99 126 133 22 53 1 55 -127 13 -117 -38 -155 -44 -216 -31 -42 9 -96 50
-108 81 -10 24 -15 27 -37 17z m427 -100 c0 -5 -18 -23 -40 -40 -34 -29 -46
-33 -92 -32 -29 1 -66 5 -83 9 -29 7 -29 8 -4 9 14 0 64 14 110 31 88 31 109
35 109 23z"/>
<path d="M2690 3130 c-24 -24 -26 -53 -4 -74 21 -21 36 -20 68 5 30 24 33 49
8 72 -25 22 -48 21 -72 -3z m30 -35 c0 -8 -4 -15 -10 -15 -5 0 -10 7 -10 15 0
8 5 15 10 15 6 0 10 -7 10 -15z"/>
<path d="M1175 3560 c-96 -14 -168 -63 -343 -234 -80 -78 -112 -117 -139 -171
-20 -38 -44 -82 -54 -96 -64 -91 -144 -273 -181 -414 -6 -22 -21 -71 -35 -110
-24 -70 -86 -373 -78 -385 2 -3 -5 -40 -16 -81 -30 -112 -34 -162 -15 -178 13
-11 19 -9 41 13 25 25 34 56 15 56 -5 0 -10 -4 -10 -10 0 -5 -4 -10 -10 -10
-14 0 -12 51 4 118 18 69 29 127 56 295 12 70 33 155 46 190 14 34 38 106 54
160 28 93 65 176 140 312 18 33 44 81 58 107 31 60 187 236 260 294 31 25 89
60 127 80 58 29 82 35 138 36 73 1 94 12 52 28 -29 11 -36 11 -110 0z"/>
<path d="M1169 3380 c-63 -33 -127 -116 -190 -247 -80 -163 -118 -333 -145
-643 -6 -80 -19 -205 -28 -279 -12 -96 -13 -138 -5 -145 19 -20 37 22 44 107
4 45 9 96 11 112 2 17 8 86 14 155 11 118 52 405 75 515 34 167 165 375 256
407 16 5 29 16 29 24 0 19 -18 17 -61 -6z"/>
</g>
</svg>
